<?xml version="1.0" encoding="UTF-8" standalone="no"?>
<!-- Created with Inkscape (http://www.inkscape.org/) -->

<svg
   width="32.60096mm"
   height="32.60096mm"
   viewBox="0 0 32.60096 32.60096"
   version="1.1"
   id="svg5"
   xml:space="preserve"
   inkscape:version="1.2 (dc2aedaf03, 2022-05-15)"
   sodipodi:docname="callforward.svg"
   xmlns:inkscape="http://www.inkscape.org/namespaces/inkscape"
   xmlns:sodipodi="http://sodipodi.sourceforge.net/DTD/sodipodi-0.dtd"
   xmlns="http://www.w3.org/2000/svg"
   xmlns:svg="http://www.w3.org/2000/svg"><sodipodi:namedview
     id="namedview7"
     pagecolor="#ffffff"
     bordercolor="#000000"
     borderopacity="0.25"
     inkscape:showpageshadow="2"
     inkscape:pageopacity="0.0"
     inkscape:pagecheckerboard="0"
     inkscape:deskcolor="#d1d1d1"
     inkscape:document-units="mm"
     showgrid="false"
     inkscape:zoom="1.0444209"
     inkscape:cx="226.44127"
     inkscape:cy="94.789371"
     inkscape:window-width="1920"
     inkscape:window-height="1009"
     inkscape:window-x="-8"
     inkscape:window-y="-8"
     inkscape:window-maximized="1"
     inkscape:current-layer="layer1" /><defs
     id="defs2" /><g
     inkscape:label="Layer 1"
     inkscape:groupmode="layer"
     id="layer1"
     transform="translate(-390.95316,-92.089355)"><rect
       style="fill:#ff2a76;fill-opacity:1;fill-rule:evenodd;stroke:none;stroke-width:0.266041;stroke-linecap:round;stroke-linejoin:round;stroke-opacity:1;paint-order:stroke fill markers;stop-color:#000000"
       id="rect16283"
       width="32.60096"
       height="32.60096"
       x="390.95316"
       y="92.089355"
       ry="6.8005166" /><path
       style="fill:#ffffff;stroke-width:0.131362"
       d="m 415.34814,101.40046 -1.61211,-1.932394 -1.28078,-0.002 c -0.70444,-9.3e-4 -1.28079,0.0291 -1.28079,0.0663 0,0.0372 0.50246,0.660404 1.11658,1.384814 0.61412,0.72442 1.11658,1.37375 1.11658,1.44297 0,0.0787 -2.75663,0.12585 -7.36205,0.12585 h -7.36204 l 0.0386,0.95237 0.0386,0.95239 7.34088,0.0657 7.34087,0.0657 -1.134,1.35849 c -0.62371,0.74716 -1.13401,1.38262 -1.13401,1.41214 0,0.0295 0.57636,0.0533 1.28079,0.0529 l 1.28078,-9.2e-4 1.54896,-1.84177 c 0.85194,-1.01297 1.57739,-1.91582 1.61212,-2.00633 0.0348,-0.0905 -0.6623,-1.03415 -1.54897,-2.09696 z m -3.98441,9.98602 -1.6424,-1.9376 h -1.31912 -1.31911 l 0.41407,0.49262 c 0.22775,0.27092 0.76787,0.92117 1.20027,1.44498 l 0.78619,0.95237 h -2.89842 -2.89841 v -2.95565 -2.95564 h -0.98521 -0.98522 v 3.94086 3.94087 h 3.87519 c 2.13135,0 3.87482,0.0444 3.87439,0.0985 -3.9e-4,0.0542 -0.52612,0.71921 -1.16817,1.47783 l -1.16736,1.3793 1.19115,0.0381 c 0.65513,0.0209 1.26462,0.01 1.35443,-0.0245 0.15046,-0.0577 3.3422,-3.79746 3.33383,-3.90621 -0.002,-0.0265 -0.74279,-0.92007 -1.6461,-1.98575 z"
       id="path26362" /></g></svg>
