<?xml version="1.0" encoding="UTF-8" standalone="no"?>
<!-- Created with Inkscape (http://www.inkscape.org/) -->

<svg
   width="32.60096mm"
   height="32.60096mm"
   viewBox="0 0 32.60096 32.60096"
   version="1.1"
   id="svg5"
   xml:space="preserve"
   inkscape:version="1.2 (dc2aedaf03, 2022-05-15)"
   sodipodi:docname="email.svg"
   xmlns:inkscape="http://www.inkscape.org/namespaces/inkscape"
   xmlns:sodipodi="http://sodipodi.sourceforge.net/DTD/sodipodi-0.dtd"
   xmlns="http://www.w3.org/2000/svg"
   xmlns:svg="http://www.w3.org/2000/svg"><sodipodi:namedview
     id="namedview7"
     pagecolor="#ffffff"
     bordercolor="#000000"
     borderopacity="0.25"
     inkscape:showpageshadow="2"
     inkscape:pageopacity="0.0"
     inkscape:pagecheckerboard="0"
     inkscape:deskcolor="#d1d1d1"
     inkscape:document-units="mm"
     showgrid="false"
     inkscape:zoom="1.4770342"
     inkscape:cx="137.09906"
     inkscape:cy="101.55486"
     inkscape:window-width="1920"
     inkscape:window-height="1009"
     inkscape:window-x="-8"
     inkscape:window-y="-8"
     inkscape:window-maximized="1"
     inkscape:current-layer="layer1" /><defs
     id="defs2" /><g
     inkscape:label="Layer 1"
     inkscape:groupmode="layer"
     id="layer1"
     transform="translate(-390.95316,-92.089355)"><rect
       style="fill:#003aff;fill-opacity:1;fill-rule:evenodd;stroke:none;stroke-width:0.266041;stroke-linecap:round;stroke-linejoin:round;stroke-opacity:1;paint-order:stroke fill markers;stop-color:#000000"
       id="rect16283"
       width="32.60096"
       height="32.60096"
       x="390.95316"
       y="92.089355"
       ry="6.8005166" /><path
       id="path21899"
       style="fill:#ffffff;stroke-width:0.0650931"
       d="m 407.2504,97.8767 -0.3055,0.24334 c -0.16798,0.13382 -0.33467,0.27505 -0.37047,0.31389 -0.0534,0.0579 -0.87027,0.73076 -1.19113,0.9811 -0.0465,0.0363 -0.13435,0.11202 -0.19528,0.16821 -0.0609,0.0562 -0.33042,0.28737 -0.59893,0.51375 -0.26851,0.22637 -0.64198,0.54423 -0.82994,0.70636 l -0.34174,0.2947 v 1.19316 c 0,0.71975 0.0248,1.19304 0.0625,1.19304 0.0344,0 0.11496,-0.0525 0.179,-0.11684 0.0641,-0.0643 0.27757,-0.24726 0.47447,-0.40658 0.19691,-0.15932 0.38731,-0.32107 0.42311,-0.35941 0.0528,-0.0565 0.54728,-0.46426 0.84621,-0.69772 0.0358,-0.028 0.16762,-0.14036 0.29292,-0.24982 0.35355,-0.30883 0.56414,-0.44798 0.60949,-0.40263 0.0228,0.0228 0.0414,1.72089 0.0414,3.77349 v 3.73205 h 0.9113 0.91131 v -3.73904 c 0,-2.05646 0.0234,-3.75352 0.052,-3.77121 0.0551,-0.0341 0.61634,0.38261 0.65322,0.48502 0.0119,0.0331 0.0617,0.0603 0.1106,0.0603 0.0489,0 0.1125,0.037 0.14113,0.0823 0.0286,0.0453 0.2131,0.21241 0.41001,0.37136 0.1969,0.15895 0.40449,0.33432 0.46124,0.38967 0.0568,0.0553 0.22824,0.20309 0.38115,0.32839 0.15291,0.1253 0.35239,0.29373 0.44332,0.37429 0.0909,0.0806 0.19039,0.14646 0.22096,0.14646 0.0306,0 0.0556,-0.53654 0.0556,-1.19228 v -1.19227 l -0.2441,-0.21613 c -0.13426,-0.11889 -0.46282,-0.3952 -0.73013,-0.61406 -0.26732,-0.21886 -0.56224,-0.47116 -0.65539,-0.56067 -0.0931,-0.0895 -0.21462,-0.19202 -0.26991,-0.22782 -0.14114,-0.0914 -1.07266,-0.87163 -1.32118,-1.10659 -0.11361,-0.1074 -0.3013,-0.26328 -0.41701,-0.34644 z m -5.81833,4.8947 -0.28339,0.22426 c -0.15585,0.12338 -0.41947,0.33999 -0.58583,0.48134 -0.39621,0.33663 -0.82283,0.69409 -1.21287,1.01619 -0.17342,0.1432 -0.36256,0.30431 -0.42031,0.35801 -0.0577,0.0537 -0.26522,0.2282 -0.46112,0.38776 -0.41168,0.33533 -0.53619,0.44284 -0.71501,0.61724 -0.12741,0.12417 -0.12942,0.22463 -0.12942,6.28683 0,3.38839 0.0196,6.18033 0.0436,6.20432 0.024,0.024 4.35187,0.0363 9.61751,0.0272 l 9.5739,-0.0165 0.0167,-6.18843 c 0.0165,-6.13218 0.0153,-6.18953 -0.1148,-6.31403 -0.20697,-0.19803 -0.33236,-0.30638 -0.71361,-0.61674 -0.19589,-0.15946 -0.40308,-0.33393 -0.46035,-0.38763 -0.0573,-0.0537 -0.21602,-0.18551 -0.35281,-0.29292 -0.13678,-0.1074 -0.40119,-0.32709 -0.58749,-0.48819 -0.56667,-0.49006 -0.98207,-0.83889 -1.27961,-1.07443 l -0.28338,-0.22426 -0.0177,1.21007 c -0.0204,1.38916 -0.10832,1.17518 0.7698,1.87372 0.26658,0.21206 0.53257,0.43174 0.59118,0.4882 0.0586,0.0564 0.21388,0.18936 0.34492,0.29546 0.19276,0.15607 0.23447,0.23019 0.2188,0.38814 -0.0169,0.17011 -0.0989,0.24347 -0.63771,0.57007 -0.34011,0.20614 -0.67697,0.4017 -0.74857,0.43468 -0.1464,0.0674 -2.02918,1.14593 -2.18062,1.2491 -0.0537,0.0366 -0.17819,0.10119 -0.27665,0.14353 -0.0985,0.0424 -0.17901,0.0963 -0.17901,0.11989 0,0.0236 -0.0952,0.0807 -0.21155,0.12689 -0.11635,0.0462 -0.33755,0.16687 -0.4915,0.26825 -0.15395,0.10138 -0.29122,0.18435 -0.30512,0.18435 -0.0139,0 -0.6258,0.34803 -1.35971,0.77336 l -1.33428,0.77323 -0.72785,-0.41522 c -0.4003,-0.22842 -0.74392,-0.41535 -0.7637,-0.41535 -0.0198,0 -0.0823,-0.0398 -0.13884,-0.0885 -0.0565,-0.0487 -0.26382,-0.17624 -0.46073,-0.28339 -0.19691,-0.10715 -0.47518,-0.26051 -0.61838,-0.34085 -0.14321,-0.0803 -0.42149,-0.23655 -0.61839,-0.34708 -0.19691,-0.11053 -0.37265,-0.21747 -0.39056,-0.23774 -0.0179,-0.0203 -0.14971,-0.0978 -0.29292,-0.17214 -0.1432,-0.0744 -0.53865,-0.29679 -0.87876,-0.4943 -0.34011,-0.19752 -0.7502,-0.43282 -0.9113,-0.52291 -0.1611,-0.0901 -0.39544,-0.22605 -0.52075,-0.3022 -0.1253,-0.0762 -0.30051,-0.17001 -0.38928,-0.2085 -0.0888,-0.0385 -0.17666,-0.0901 -0.19528,-0.11468 -0.0187,-0.0246 -0.19493,-0.13025 -0.39183,-0.23481 -0.4084,-0.21689 -0.45316,-0.26614 -0.45464,-0.49837 -6.6e-4,-0.11378 0.0734,-0.22888 0.23037,-0.35802 0.12728,-0.10468 0.325,-0.27307 0.43938,-0.37416 0.11438,-0.10108 0.34713,-0.29014 0.51718,-0.42018 0.17006,-0.13003 0.3092,-0.25964 0.3092,-0.28808 0,-0.0285 0.0278,-0.0517 0.0618,-0.0517 0.034,0 0.13708,-0.0698 0.22923,-0.15523 l 0.16756,-0.15536 -0.0177,-1.21007 z m -1.88274,6.70142 c 0.0207,0 0.38865,0.20504 0.81773,0.45565 0.42907,0.2506 0.79412,0.45565 0.81125,0.45565 0.0171,0 0.1106,0.0541 0.20761,0.12014 0.19799,0.13481 0.80008,0.49131 1.26665,0.74997 0.79546,0.441 0.9835,0.54817 1.80633,1.02992 0.48332,0.28297 0.9227,0.54092 0.9764,0.57313 0.0537,0.0322 0.48618,0.28117 0.96101,0.55341 l 0.86325,0.49507 0.63389,-0.3645 c 0.3486,-0.20047 0.67771,-0.39052 0.73141,-0.42234 0.99133,-0.58738 1.56982,-0.91219 1.62453,-0.91219 0.0374,0 0.0679,-0.0264 0.0679,-0.0587 0,-0.0323 0.0806,-0.0909 0.17901,-0.13019 0.0985,-0.0393 0.26688,-0.12597 0.37428,-0.19248 0.17658,-0.10935 0.35642,-0.21337 0.82104,-0.47498 0.0855,-0.0481 0.17,-0.10369 0.18791,-0.12344 0.0179,-0.0198 0.13507,-0.0869 0.26037,-0.14926 0.1253,-0.0624 0.3157,-0.17045 0.42311,-0.24003 0.1074,-0.0696 0.23958,-0.14881 0.29381,-0.17608 0.12191,-0.0613 1.03718,-0.58441 1.17078,-0.66912 0.23857,-0.15126 0.90434,-0.51959 0.93915,-0.51959 0.0211,0 0.0307,1.57444 0.0215,3.49875 l -0.0168,3.49876 -7.6862,0.0165 c -4.22738,0.009 -7.7058,-0.003 -7.72981,-0.0271 -0.0531,-0.0531 -0.0592,-6.98696 -0.006,-6.98696 z" /></g></svg>
