<?xml version="1.0" encoding="UTF-8" standalone="no"?>
<!-- Created with Inkscape (http://www.inkscape.org/) -->

<svg
   width="32.60096mm"
   height="32.60096mm"
   viewBox="0 0 32.60096 32.60096"
   version="1.1"
   id="svg5"
   xml:space="preserve"
   inkscape:version="1.2 (dc2aedaf03, 2022-05-15)"
   sodipodi:docname="sms.svg"
   xmlns:inkscape="http://www.inkscape.org/namespaces/inkscape"
   xmlns:sodipodi="http://sodipodi.sourceforge.net/DTD/sodipodi-0.dtd"
   xmlns="http://www.w3.org/2000/svg"
   xmlns:svg="http://www.w3.org/2000/svg"><sodipodi:namedview
     id="namedview7"
     pagecolor="#ffffff"
     bordercolor="#000000"
     borderopacity="0.25"
     inkscape:showpageshadow="2"
     inkscape:pageopacity="0.0"
     inkscape:pagecheckerboard="0"
     inkscape:deskcolor="#d1d1d1"
     inkscape:document-units="mm"
     showgrid="false"
     inkscape:zoom="1.4770342"
     inkscape:cx="137.09906"
     inkscape:cy="101.55486"
     inkscape:window-width="1920"
     inkscape:window-height="1009"
     inkscape:window-x="-8"
     inkscape:window-y="-8"
     inkscape:window-maximized="1"
     inkscape:current-layer="layer1" /><defs
     id="defs2" /><g
     inkscape:label="Layer 1"
     inkscape:groupmode="layer"
     id="layer1"
     transform="translate(-390.95316,-92.089355)"><rect
       style="fill:#2800ff;fill-opacity:1;fill-rule:evenodd;stroke:none;stroke-width:0.266041;stroke-linecap:round;stroke-linejoin:round;stroke-opacity:1;paint-order:stroke fill markers;stop-color:#000000"
       id="rect16283"
       width="32.60096"
       height="32.60096"
       x="390.95316"
       y="92.089355"
       ry="6.8005166" /><path
       style="fill:#ffffff;stroke-width:0.123455"
       d="m 405.34935,119.25095 c -0.038,-0.038 -0.0692,-0.92101 -0.0692,-1.96215 v -1.89298 h -3.82711 -3.82711 v -7.71594 -7.715955 h 9.6295 9.6295 v 7.715955 7.71594 h -3.14027 -3.14027 l -1.52016,1.81131 c -0.83609,0.99622 -1.55278,1.85985 -1.59265,1.91917 -0.0807,0.12012 -2.03319,0.23372 -2.14226,0.12465 z m -1.13537,-10.72372 c 0.24686,-0.24687 0.32547,-0.44895 0.32547,-0.83672 0,-0.6317 -0.24521,-0.99955 -0.78506,-1.17771 -0.78634,-0.25952 -1.56059,0.30514 -1.56059,1.13812 0,1.05521 1.28422,1.61227 2.02018,0.87631 z m 3.8227,0.0732 c 0.17638,-0.13874 0.35422,-0.43098 0.39521,-0.64942 0.23399,-1.24733 -1.2408,-1.99714 -2.08538,-1.06024 -0.30384,0.33704 -0.34388,0.46314 -0.28542,0.89901 0.12882,0.96041 1.21736,1.40707 1.97559,0.81065 z m 3.91957,-0.10861 c 0.6452,-0.64519 0.40992,-1.70376 -0.44111,-1.98462 -0.94695,-0.31252 -1.85414,0.60229 -1.5403,1.55324 0.28448,0.86199 1.3244,1.08839 1.98141,0.43138 z"
       id="path23430" /></g></svg>
