<?xml version="1.0" encoding="UTF-8" standalone="no"?>
<!-- Created with Inkscape (http://www.inkscape.org/) -->

<svg
   width="32.60096mm"
   height="32.60096mm"
   viewBox="0 0 32.60096 32.60096"
   version="1.1"
   id="svg5"
   xml:space="preserve"
   inkscape:version="1.2 (dc2aedaf03, 2022-05-15)"
   sodipodi:docname="zapier.svg"
   xmlns:inkscape="http://www.inkscape.org/namespaces/inkscape"
   xmlns:sodipodi="http://sodipodi.sourceforge.net/DTD/sodipodi-0.dtd"
   xmlns="http://www.w3.org/2000/svg"
   xmlns:svg="http://www.w3.org/2000/svg"><sodipodi:namedview
     id="namedview7"
     pagecolor="#ffffff"
     bordercolor="#000000"
     borderopacity="0.25"
     inkscape:showpageshadow="2"
     inkscape:pageopacity="0.0"
     inkscape:pagecheckerboard="0"
     inkscape:deskcolor="#d1d1d1"
     inkscape:document-units="mm"
     showgrid="false"
     inkscape:zoom="1.4770342"
     inkscape:cx="77.520209"
     inkscape:cy="144.2079"
     inkscape:window-width="1920"
     inkscape:window-height="1009"
     inkscape:window-x="-8"
     inkscape:window-y="-8"
     inkscape:window-maximized="1"
     inkscape:current-layer="layer1" /><defs
     id="defs2" /><g
     inkscape:label="Layer 1"
     inkscape:groupmode="layer"
     id="layer1"
     transform="translate(-390.95316,-92.089355)"><rect
       style="fill:#ff4a00;fill-opacity:1;fill-rule:evenodd;stroke:none;stroke-width:0.266041;stroke-linecap:round;stroke-linejoin:round;stroke-opacity:1;paint-order:stroke fill markers;stop-color:#000000"
       id="rect16283"
       width="32.60096"
       height="32.60096"
       x="390.95316"
       y="92.089355"
       ry="6.8005166" /><path
       style="fill:#ffffff;stroke-width:0.00770741"
       d="m 406.99202,118.01628 c -0.39455,-0.009 -0.81352,-0.0461 -1.22548,-0.10936 l -0.11176,-0.0172 -0.002,-2.81121 c -0.001,-1.54616 -0.005,-2.81121 -0.008,-2.81121 -0.003,0 -0.89688,0.8931 -1.98536,1.98466 -1.08847,1.09156 -1.9823,1.98466 -1.98628,1.98466 -0.0152,0 -0.3197,-0.23172 -0.53085,-0.40401 -0.39457,-0.32195 -0.85438,-0.77171 -1.19426,-1.16819 -0.17137,-0.1999 -0.50181,-0.62158 -0.53353,-0.68085 -0.007,-0.0134 0.21331,-0.23647 1.97935,-2.00252 l 1.98743,-1.98743 h -2.81113 -2.81112 l -0.004,-0.0173 c -0.007,-0.0299 -0.0333,-0.20489 -0.0497,-0.32949 -0.0449,-0.34087 -0.0675,-0.64647 -0.0776,-1.04435 -0.009,-0.35297 -0.003,-0.51489 0.0392,-0.9827 0.0228,-0.25589 0.0787,-0.77234 0.0882,-0.81505 l 0.004,-0.0173 h 2.81113 2.81112 l -1.98796,-1.98797 -1.98796,-1.98798 0.0195,-0.0295 c 0.0401,-0.0605 0.21289,-0.28809 0.315,-0.41475 0.52821,-0.65516 1.12183,-1.22617 1.78959,-1.72141 0.0752,-0.0557 0.13987,-0.10139 0.14374,-0.10139 0.004,0 0.89756,0.8931 1.98598,1.98466 1.08842,1.09156 1.98186,1.98466 1.98544,1.98466 0.003,0 0.007,-1.26394 0.007,-2.80874 v -2.80874 l 0.0212,-0.005 c 0.13361,-0.0277 0.54298,-0.0784 0.8112,-0.10037 0.585,-0.048 1.27775,-0.0366 1.86905,0.0308 0.16778,0.0191 0.41638,0.0545 0.4875,0.0694 l 0.0173,0.003 v 2.81112 2.81113 l 1.98788,-1.98788 1.98789,-1.98788 0.0218,0.0141 c 0.0456,0.0294 0.33482,0.24915 0.44215,0.3359 0.67053,0.54191 1.28027,1.18631 1.7788,1.87987 l 0.0248,0.0345 -0.90386,0.90581 c -0.49713,0.49818 -1.39116,1.39396 -1.98675,1.99062 l -1.08287,1.08481 h 2.81111 2.81113 l 0.004,0.0173 c 0.0185,0.0784 0.0717,0.49602 0.092,0.72257 0.0494,0.55123 0.0495,1.18055 2.3e-4,1.72646 -0.0201,0.22244 -0.0784,0.67857 -0.0929,0.72642 -0.004,0.0128 -0.14454,0.0135 -2.81292,0.0135 -1.54486,0 -2.80879,0.003 -2.80875,0.006 8e-5,0.003 0.89302,0.8988 1.9844,1.99027 l 1.98431,1.98448 -0.0125,0.0194 c -0.0238,0.0369 -0.20907,0.28187 -0.29249,0.38655 -0.44547,0.55901 -0.96438,1.08038 -1.51729,1.52447 -0.14244,0.11441 -0.43155,0.33202 -0.44111,0.33202 -0.003,0 -0.89903,-0.8931 -1.99058,-1.98467 l -1.98466,-1.98466 -0.004,2.81122 -0.004,2.81121 -0.11175,0.0171 c -0.57512,0.0882 -1.13182,0.12297 -1.74959,0.10941 z m 0.72449,-7.23235 c 0.43785,-0.0371 0.83166,-0.11199 1.23319,-0.23456 0.12098,-0.0369 0.33708,-0.11179 0.34469,-0.1194 0.002,-0.002 0.0261,-0.0689 0.0535,-0.14866 0.16239,-0.47185 0.25548,-0.91666 0.30055,-1.43607 0.0159,-0.18324 0.0181,-0.67508 0.004,-0.85553 -0.0373,-0.47172 -0.11037,-0.86633 -0.23985,-1.2943 -0.0613,-0.20268 -0.11396,-0.34491 -0.13005,-0.35133 -0.007,-0.003 -0.084,-0.0293 -0.17088,-0.0588 -0.7988,-0.27103 -1.65402,-0.36431 -2.49335,-0.27197 -0.45389,0.05 -0.89722,0.15291 -1.33092,0.30913 l -0.0746,0.0269 -0.0344,0.0937 c -0.0418,0.11364 -0.0936,0.27969 -0.13551,0.43393 -0.2409,0.88733 -0.26488,1.83031 -0.0697,2.73894 0.0512,0.23824 0.13513,0.53049 0.21512,0.74896 l 0.0245,0.0669 0.0939,0.0345 c 0.30732,0.11305 0.74595,0.22225 1.10357,0.27473 0.13392,0.0197 0.39563,0.0459 0.53893,0.0541 0.1652,0.009 0.5993,0.003 0.76747,-0.0112 z"
       id="path17025" /></g></svg>
